<?xml version="1.0" encoding="UTF-8"?>
<svg id="_图层_1" data-name="图层_1" xmlns="http://www.w3.org/2000/svg" version="1.1" viewBox="0 0 512 512">
  <!-- Generator: Adobe Illustrator 29.4.0, SVG Export Plug-In . SVG Version: 2.1.0 Build 152)  -->
  <defs>
    <style>
      .st0 {
        fill: #fff;
      }
    </style>
  </defs>
  <path class="st0" d="M512,0v512H0V0h512ZM228,496h16c.5,0,3.1-6.8,6-7l-2,7h20l-2-7,6.7,6.8,13.3-.3-21-12.5c1.2-1.3,1.4-5.5,3.5-5s.2,1.4,1.2,2c7.9,5.3,16.8,8.9,24.3,13.6s.9,2.4,1.6,2.5c1.9.3,3.1-1.8,4.7-1.8,2.5,0,6.5,2.7,9.7,1.8-2-3.8-7.5-1.8-10.9-4.1l-2.2-15.3c.3-2.6,10.4,1.7,12,3,2.6,2.1,4.2,7.1,6.5,8.5s5.7,1,8.9,3.1,3,6.3,8.7,4.8c.7-.6-7.6-14.4-8.6-15.9-3.1-4.9-13.1-16.1-14.4-19.6s.3-2,1.5-1.5c7.3,3.1,10,19.1,19.7.7,7.3-13.9-2.8-9.5-12.2-6.7.4-3.2-4.5-7-4.9-8.7s1.1-7.7.9-10.8-1.6-6.1-1.9-9.1c-1-9.6,1.8-19.9,2.9-29.4,8.4,3.3,28,12.4,32.4,20.1s-4.5,26.5-3,28.9l30.6,16.6c-1.5,9.1-.4,15-10.6,18.4,1.2-6.5-5.3-6.8-6.3-8.2s0-2.8-1.1-4.3-5-1.9-5.8-2.7-.4-2.7-1.7-3.8c-2.8-2.4-9.6-2.7-9.4,2.5s4.3,5.3,5.4,7.5.2,4,.9,5.1,3.7.6,5.1,1.9c2.2,2.1,1,8.4,7.5,7,.5.5-1.4,6.7-2.3,7.7-2,2.4-7.9,1.8-7.7,5.3,2.9.5,7.7-1.9,9.5-4,2.7-3,2.2-7.8,4.5-10.5s8.6-4,11.4-6.6l2.6-13.9,2.8,1.2-2,15.1c-1.2,2.3-5.7,2.4-8.2,3.8-5.6,3.3-5.4,8.5-7.6,13.8l3-.7c.7-3.6,1.1-7.2,3.9-9.9,3-2.8,8.3-2.6,10-5s2.1-9.8,2.1-13.4c3.1-.9,2.1,3.6,2,5.5s-1.8,11.6-2.5,12.5c-1.2,1.5-4.5.8-6.6,1.4-5.4,1.7-5.4,4.6-7,9.5l3-.7c-1-9.4,9.6-5.7,12.1-8.7l2.4-11.6c1.3-1.9,19.7-3.5,22.1,0,4.9,8.6-8.6,22.2,6.5,22l-2-9c12.6,2.5,25.1,1.5,34.4-8.1,11.7-12.2.2-10.6-9.4-15.4,2.4-2.3,6-1.8,8.9-3.1,10.1-4.6,17-13.9,18-25,1.4-15.4-12.3-4.9-15.5-9.4,1.7-12.7-2.9-27.9-11.4-37.5s-17.4-11.4-22.5-24.5c-3.7-9.6-.6-10.8,2.5-19.5s1.2-5.4,1.9-8.1-.6-1.7,2-1.5c2,6.8,9.1,13.6,14.5,18s11.4,8.9,17.5,8v-16c3.8,1.1,20.7-3.9,19.9-8.4s-15.1-7.8-18.3-9.8c-11.6-7.4-20.6-19.5-27.4-31.3,2.6-2.3,4.4-8.7,6.2-10.6s3.1,0,5.4-1.4,8.8-7.4,9.1-7.9c3.2-5.6-1.9-9.9-2.6-15.5l-6.5-2.7-3.8-17c19-41.3-1.4-94.2-29.7-126.3s-16.5-14.4-19.5-19.5-1.7-6.9-3.2-8.3-9.4-1.7-12.5-3-10.9-7.8-15.6-10.4c-31-17.3-65.2-21-100.2-18.8-52.1,3.2-100.8,31.6-128.5,75.5-10.8,17.1-21.4,44.5-20,65s3.2,11.8,3,14-3.3,3.7-3.1,8,4.3,10.4,5,11.1c1.7,1.9,4.2,1,4.9,1.6s3.9,10,4,10.6c.9,5.5-6.8,29.1-9.3,35.2-13.5,32.2-57.2,57.7-49,97.1,4.6,22.1,20.9,22.8,31.4,37.6,15.5,21.9-15.7,41.3-30.6,29.7-3.6-2.8-9.6-17-12.8-3.4-7.1,29.9,30.5,47.9,55,37.2,2.1.5,1.4,4.9,2,7,.9,3,6,15.5,10.6,12.5l3.5-6.5,4.7,8.8,8.8.2c-6.2-6.8-8.9-15.9-9-25-4.9,4-8.1,10-10,16-1.6,1.2-3.7-8.6-3.9-9.6-2-11.3.2-24.3,5-34.7s5.2-8.5,7.9-12.6c-2.6-2.5-10.6,13.8-11.2,15.3-1.5,3.6-2.7,7.6-3.6,11.4-1.4,6.5,2.1,8.6-6.3,11.7-19.5,7.2-47.6-1.8-49-25s-.6-3.8,1-3.5c10.7,18.1,40.1,6.9,46.1-10.5,9.2-26.9-22.3-32.5-31.1-50-17.2-34.1,26.8-67,41.5-93.5s10.8-26.8,13-41l5.5,13c-9.1.9,0,6,0,6.7.2,1-4.1,14.2-4.8,17.2-4.7,22-6,43.7-5.3,66.2,1.8.4,2.5-.9,3.5-2,4.2-4.3,7.9-10.4,12-14.9l10.4,5c1.4,5.5-1.3,3.1-4.6,4.6-7.4,3.4-2.8,12.6-3.3,13.2s-2.8.7-4,1.6c-4.9,3.8-3,8.7-.1,13.2l-.3,1.4c-10.2,2.9-28,16-27.7,27.5s16.3,23.6,25,29.1c-2,9.7-5.8,18.6-2.4,28.3,6.6,19.2,24.7,37.6,46.5,33,1.5,1.5-7.5,8.2-3.5,9s5.9-7.5,8.5-9.4,7.7-2.8,11.3-4.7c8.6-4.6,14.2-14.7,16.7-23.8l7.9,2.1,1.1,10.9c-8.1-1.1-17.7,3.9-17,13-5.7-1.9-13.6.5-18,4.4s-4.7,5.8-3.9,6.5c2.4,2.2,4.5-4.1,6-5.5,5-4.7,10.7-3.2,16.9-3.6,1.7-9.4,6.4-12.6,15.6-13.9.1,5,1.1,17.1-3.8,19.2s-11.1,1-7.2,4.7l10-4,.5,3c4.6,1,2-2,3.6-3.1s8.8-2.7,11.8-4c6.3-2.8,12.1-6.6,18-9.7,2.8,1.6,3.7,3.4.6,5.3l-21.9,11.6ZM107,319c-.8-.9-9.9,6.5-11,7.5-16.2,14.9-30.9,44.9-6.5,59.5s6.7,2.7,6.5-4.5c-.8-22.3,3.7-41.8,11-62.5Z"/>
  <path d="M228,496l21.9-11.6c3.1-1.9,2.3-3.7-.6-5.3-5.9,3.1-11.7,6.9-18,9.7s-10.1,2.8-11.8,4,1,4.1-3.6,3.1l-.5-3-10,4c-3.9-3.7,5.2-3.8,7.2-4.7,4.9-2.2,3.9-14.2,3.8-19.2-9.2,1.3-13.9,4.4-15.6,13.9-6.2.4-11.9-1.1-16.9,3.6s-3.5,7.7-6,5.5,3.1-5.8,3.9-6.5c4.4-4,12.3-6.3,18-4.4-.7-9.1,8.9-14.1,17-13l-1.1-10.9-7.9-2.1c-2.5,9.1-8.1,19.2-16.7,23.8s-7.9,2.3-11.3,4.7-6.3,9.9-8.5,9.4c-4-.8,5-7.5,3.5-9-21.8,4.6-39.8-13.8-46.5-33s.4-18.6,2.4-28.3c-8.7-5.6-24.7-18.1-25-29.1s17.4-24.5,27.7-27.5l.3-1.4c-2.8-4.4-4.8-9.4.1-13.2s3.8-1.4,4-1.6c.5-.6-4.1-9.8,3.3-13.2s5.9.9,4.6-4.6l-10.4-5c-4.1,4.5-7.8,10.6-12,14.9s-1.8,2.3-3.5,2c-.6-22.5.6-44.2,5.3-66.2s4.9-16.2,4.8-17.2-9.2-5.7,0-6.7l-5.5-13c-2.1,14.2-6,28.4-13,41-14.7,26.5-58.8,59.4-41.5,93.5,8.8,17.5,40.3,23.1,31.1,50s-35.4,28.5-46.1,10.5c-1.7-.3-1.1,2.4-1,3.5,1.4,23.1,29.5,32.2,49,25s4.9-5.2,6.3-11.7,2.1-7.8,3.6-11.4,8.6-17.8,11.2-15.3c-2.7,4.2-5.8,8.1-7.9,12.6-4.8,10.5-7,23.4-5,34.7s2.3,10.8,3.9,9.6c1.9-6,5.1-12,10-16,0,9.1,2.8,18.2,9,25l-8.8-.2-4.7-8.8-3.5,6.5c-4.6,2.9-9.7-9.5-10.6-12.5s0-6.4-2-7c-24.4,10.8-62.1-7.3-55-37.2,3.2-13.6,9.2.6,12.8,3.4,14.9,11.6,46.1-7.8,30.6-29.7s-26.8-15.5-31.4-37.6c-8.2-39.4,35.5-64.8,49-97.1,2.6-6.1,10.3-29.8,9.3-35.2s-3.6-10.2-4-10.6c-.7-.6-3.2.3-4.9-1.6s-4.9-9.8-5-11.1c-.2-4.3,2.8-5.6,3.1-8s-2.7-10.2-3-14c-1.4-20.5,9.2-47.9,20-65,27.7-43.9,76.4-72.3,128.5-75.5,35-2.1,69.2,1.5,100.2,18.8,4.7,2.6,11.7,8.7,15.6,10.4s10.6,1.3,12.5,3,1.9,6.1,3.2,8.3c3.1,5,14.8,14.1,19.5,19.5,28.2,32.2,48.7,85.1,29.7,126.3l3.8,17,6.5,2.7c.7,5.6,5.8,10,2.6,15.5s-8.2,7.4-9.1,7.9c-2.3,1.5-4.2.2-5.4,1.4-1.8,1.9-3.6,8.3-6.2,10.6,6.8,11.8,15.7,23.9,27.4,31.3,3.2,2,17.9,7.6,18.3,9.8.8,4.5-16.2,9.5-19.9,8.4v16c-6.1.8-12.8-4.3-17.5-8s-12.6-11.2-14.5-18c-2.6-.3-1.6,0-2,1.5-.8,2.6-1,5.4-1.9,8.1-3.1,8.6-6.3,9.9-2.5,19.5,5.1,13.1,14.3,15.3,22.5,24.5s13.1,24.9,11.4,37.5c3.2,4.4,16.9-6,15.5,9.4-1,11.1-7.9,20.4-18,25s-6.5.8-8.9,3.1c9.5,4.8,21.1,3.2,9.4,15.4-9.3,9.7-21.8,10.6-34.4,8.1l2,9c-15.1.2-1.6-13.4-6.5-22-2.4-3.6-20.8-2-22.1,0l-2.4,11.6c-2.5,3-13.1-.7-12.1,8.7l-3,.7c1.5-4.9,1.5-7.8,7-9.5s5.4,0,6.6-1.4,2.4-10.6,2.5-12.5,1-6.5-2-5.5c0,3.6,0,10.4-2.1,13.4s-7,2.2-10,5c-2.8,2.6-3.3,6.2-3.9,9.9l-3,.7c2.3-5.3,2-10.6,7.6-13.8s7-1.5,8.2-3.8l2-15.1-2.8-1.2-2.6,13.9c-2.8,2.6-9,3.9-11.4,6.6s-1.8,7.5-4.5,10.5-6.6,4.5-9.5,4c-.2-3.4,5.7-2.9,7.7-5.3s2.8-7.2,2.3-7.7c-6.5,1.3-5.3-4.9-7.5-7s-4.2-.7-5.1-1.9-.2-3.5-.9-5.1c-1.1-2.2-5.2-1.9-5.4-7.5s6.6-4.9,9.4-2.5,1,3.2,1.7,3.8,4.4.6,5.8,2.7.6,3.5,1.1,4.3c1,1.5,7.5,1.7,6.3,8.2,10.1-3.4,9.1-9.3,10.6-18.4l-30.6-16.6c-1.5-2.4,7.2-21.6,3-28.9s-24-16.8-32.4-20.1c-1.1,9.5-3.9,19.8-2.9,29.4s1.7,5.7,1.9,9.1-1.2,9.5-.9,10.8,5.3,5.5,4.9,8.7c9.4-2.8,19.5-7.2,12.2,6.7-9.7,18.5-12.5,2.4-19.7-.7s-1.9.3-1.5,1.5c1.4,3.5,11.3,14.7,14.4,19.6s9.3,15.3,8.6,15.9c-5.7,1.4-4.9-2.4-8.7-4.8s-6.5-1.6-8.9-3.1-3.9-6.4-6.5-8.5-11.7-5.7-12-3l2.2,15.3c3.4,2.4,8.9.3,10.9,4.1-3.2.9-7.2-1.8-9.7-1.8s-2.9,2.1-4.7,1.8-.9-2-1.6-2.5c-7.5-4.7-16.4-8.3-24.3-13.6s-.3-1.8-1.2-2c-2.1-.5-2.3,3.7-3.5,5l21,12.5-13.3.3-6.7-6.8,2,7h-20l2-7c-2.9.2-5.5,7-6,7h-16ZM297,60c-12.3-4.2-14.3,8-6,15-10.3,2.3-20.2,11.9-17.6,23.1s9.1,9.7,11.6,4.4c1.1-2.4-4.6-1.3-5-5-.9-8,13-19.7,21-18.5.3-2.7-3-3.2-4.5-4.9-6.3-7.1,1.4-12.8.5-14ZM337.9,83.1l-14.9.9c3.1,4.2,8,7.5,9,13l13-4-7.1-9.8ZM356,129c-1.1,1,4.5,6.9,6.5,6.1,11-3.6,10.6-18.8,6.5-27.6,1.6-2,4.2-1.5,6.4-2.7,8.5-4.7,3.6-17.8-2.4-13.4s-2.7,13.1-11.9,10.6c5.2,7.2,8.1,27.5-5,27ZM164,97c-6.9-.6-8.4,3.9-6.5,10.1s8,6.6,12.5,7c-6,7.8.3,28.3,11.8,23.3s1.9-2.3,2.2-3.8c-1.5-2.3-4.5-1-6.6-2.5-5.3-3.7-3.7-17.7-1.4-23.1-7.2,1.1-12.8-3.7-12-11ZM223,340c-27.1-2.4-42.3-32.1-42-57l-3,1c-.5-2.8,3.4-3.5,3.8-5.6s-.9-2.9-.7-4.7c.9-9.9,3-19.8,3.9-29.7l-4,2c-.6-3.3,3.4-1.6,5.2-5.3,4.5-8.8,5.7-25.2,10.8-34.7,1.9-.2.8,2,.5,3-2.5,10.7-7.7,21-9.6,31.9,11.5-2.2,22.1-5.7,34-5.5,7.7-12.4,17.4-25,24.2-37.8s11.9-30.8,22.8-42.2c1.2-1.2,2-2.9,4-2.5-18.4,23.6-29.8,52.7-29,83,.6.6,7.6-1.2,9,1.5l-9-.5c0,17,4,36.3,17,48l-3-42.5c2.1-11.2.8-24.9,5.7-35.3.6-1.2.6-3,2.3-3.2-9,30.1-9.7,66.2,10.5,92l2.5-14c8.5,11.5,24.2,16.6,37,9.5-11.3-11.2-13.7-28-15.9-43.1-.4-3,0-11.6-.7-13.5-1.1-3.5-8-10.8-10.3-15.5-13-26.8-6-70.3,15.4-91.4.7-.2.7,1,.5,1.5-.7,1.6-6.1,7.3-7.8,10.2-15.1,25.5-18.5,61.7-1.4,87s6.7,8.8,11.2,11.3c-2.5-8.2-4.8-16.3-4-25,.7-.8,10.6,8.2,12.3,9.2,10.2,5.9,23.3,7,33.7,1.3,1.1-.6,2.4,0,2-2-17.2-5.7-31.3-16.6-38.5-33.5s-6.5-18.4-6.5-21.5v-23.5h1v19.5c0,4.4,4.6,18.8,6.5,23.5,4.4,10.5,12,19.7,21.5,26,0-12.5-4.7-24.3-8.5-36s-1.4-3.2.5-3c5.2,12.8,8.4,26.3,10.5,40,1.3,2.7,13.1,6.6,16.5,7,.7,4.5-12.9,8.3-13,9.5l15.2,48.8,14.8,11.7c6.8-46.7-5.8-96.8-34-134.5,1.6-2.2,1.7.1,2.3.8,10.7,11.7,21.1,35.7,26,51,15.7,49.5,18.1,139.4-47.7,150.8-1.4.2-2.9-.9-2.5,1.5,14.3,13.8,32.6,10.3,49,2.5-8.9,7.1-12.9,18.5-23,24.5-.4,2.3,1,1.4,2.5,1.5,50.8,3.8,62.3-83.5,60.6-119.5-1.2-24.1-7.2-48.2-16-70.5,5.5,7,8.4,18.1,10.7,26.8,5.4,20.5,8.7,45.5,7.3,66.7-.6,9.9-4.1,20.6-5,30-1.4,15.4,2,31.7-4,46.5,2.1.5,2.3-1.1,3.2-2.3,24.3-31.1,21-102.2,11.1-138.5-28.4-104-147.7-152.3-233.3-78.7-14.2,12.2-37.5,43.7-41,62s-.2,1.4,1,1c3.8-1.2,9.3-2,10-6.5l1.5,2c15.8-9.1,10.8,4.6,16,9.9s7.9,2.2,10.5,4l6-16c-.2,5.1-3.9,9.8-4.8,14.7s2.1,5.9-2.2,8.8l3,3c-4.2,3.6-6.2,12-12.5,7.5-3.3,3-21.3,17.5-21.5,20.6s4,3.5-.5,8.5l13.1,65.9c4.8,6.7,4.3-.5,9-1,5.8-.5,9.9,6.7,11.6,11.3s2.4,10.7,3.3,10.7c2.7-2.1,4.9-6.9,8.8-5.8,6.5,1.8,3.7,13,5.7,14.4,4.7,0,10.4,3.4,14.6,3.5,5.5.2,16.4-4.6,16.5-11-7.5.9-14-1.2-20.3-5.2s-12.2-7.5-18.7-11.3c-11.8-6.9-22.9-16.6-26-30.5l9,14.5c11.2,13.3,29.2,22.9,47,20.1.8-.1,8.4-1.7,5.9-3.6,1.2.4,3.5-1.1,3,1.5-6.6,5.5-16,4.2-24,4,7.4,7.5,17,8.7,27,9.5-.6,4.5-3.9,7.6-7,10.5,2.9.8,7.5,3.5,10.4,3.2s3.4-1.8,7.1-1.8,7.3,2.2,11,2.1c6.7-.2,21.8-7.2,23.6,3.9,4.2-.7,7.9-1.5,12.2-.7s8.5,4.6,10.2,4.7,9.5-2.9,12.5-3.5c6.3-1.3,12.8-1.9,19-3.5-5.2-4.2-13.6-5.7-16-13,13.9-.1,29.6-6.2,38-17.5-13.3-9.6-31.9-12.3-48-9.5l5-6.5c.2-3.8-4.9,2.1-4-2.5,5.5-.4,12.1-3.1,17.5-3.1s16.7,4.2,20,4,2.8-2.2,4.9-2,8.1,10.6,12,11.1c1.5-.3,7.7-15.8,7.6-18.5-.3-8.3-9-23.2-10.3-32.3l-19.7-9.3c-.9,5.4-2.3,12-4.5,17s-1.8,5.3-4.5,5c1.5-8.2-1.8-17.1-2.9-25.4l-3.1-.6c-.3-1.7,2.6-1,2.9-2.5s-.8-5.8-.9-6.9c-.3-1.7.5-1.7-2-1.5.5,10.1-3.3,19.4-6.9,28.5l4.9,8c-8.1,6.5-23,4.9-31.3-.6s-6.7-7-7.7-5.8l-1.5,14-9.3-12.7-6.2-13.3,1,14-10.7-8.8-17.3-1.2c4.9,7.5,3.1,16,5,24-3.1.2-4.2-4-6.7-4.8-16.7-5.1-12.4,26.8,4.7,13.8-.5,15-12.6,18.4-25.5,17.1-9.8-1-20.4-12.9-20.4-22.6v-18c0-.2,2.5-3.4-.5-2.5s-7.9,5.3-8.1,7.5c-.4,4.6,4.7,19,7.4,23.2s4.3,5,5.9,7.3c6.5,9.3,15.9,13.5,26.3,17ZM127,185c-3.7-.6-4.8,3.6-8.6,4s-4.5-1.7-7.4-2c-.4,7.8,1,15.7,3.5,23,4.8,1.1,8.7.8,11.1,6,11.1-1.4,10.1-10.5,14.4-18.6-5.9-1.7-12.6-5.8-13-12.5ZM438,204c-6.6,1.8-10.3-.2-15.5-4-3.2,5.1-7,11.2-13.5,12,4,13.3,8.7,27,9,41,15.3-10.6,19.9-31.2,20-49ZM242,235c-.9-10.6,1.4-20.7,3-31l-19,31h16ZM159,206c-1.5-1.1-30.2,11.8-35.6,13s-2,.4-.8-.9,2.1.5,1.3-1.5c-4.7-6.2-7-3.9-13-1.5.5,4.1,5.8,2.7,3,8,3.3,1.3,3.2-4.3,5.5-1s4.6,14.2,6.1,17.9,8.2,16,7.4,18.4-6.6,0,1.7,7.6c3.4-.9,4.6-2.3,8.4-1l-2.9-6.9,35.8-33.7c.7-3.2-10.7-4.3-12.8-5.7l-4.2-12.8ZM334,268c1.5-12.6,4.1-25.3,2.6-38.1-5.8-1.3-10.7-1.2-16.5-3.5s-10-6.3-15-9.5c.5,8.5,1.5,16.2,5,24l-8.5-5c.2,11.9,1.9,34.2,8.6,44.4.8,1.2,1.2,2.3,2.4.7s4.2-13.1,4.8-16.2c1.3-6.7,2.1-13,1.7-19.8,5.3,4.7,3.8,14,5.9,20.3l9.1,2.7ZM340,229c-1.9,0-2-.5-2,1.5,0,4.4,1.2,8.9,1.1,14-.2,7.6-2.4,16.1-2.9,23.8l17.9,9.7-14-49ZM221,237c-11.3,1.2-23.1,2-33.5,7-1.8,2.1-5.6,31.7-4.5,33,5.5-2.7,11.8-5.3,13.1-11.8l6.8.8,18.1-29ZM242,237h-19l-19,31c4.7-1.4,9.6-2.5,14.5-3s15.3,2.5,18.5-4h-18.5c-1.3,0-5.2,2-7,2-4.3-1,4.7-2.8,5.1-2.9,7.2-.9,14.7-.8,21.9-1,6.8-7,2.8-13.5,3.5-22.1ZM435,268l-2.7-14.8-3.3-9.2c-1.1,8.5,5,19.3,4,27.4s-11.4,15.2-12,22.6c4.4-2,9.4-15.8,12-17.5s1.7-.6,2.5.6l1,3,6.5-5.5v-1.8c-3.2-2.8-2.9-3.8-2-7.7l-6,3ZM244.8,261.2c-2.6-1.6-9,.6-7.8,4.8l10,1c.4-.4-1.9-5.7-2.2-5.8ZM149,335c1.3-1.6-2.6-26.1-3.2-30.3-1.6-10.7-3.4-22.7-5.8-33.2s.3-3.3-1.6-4.4c-2.1,1.4-1.3,2.3-1.2,4.2.9,18,6.6,41.1,8.8,60.2.2,1.8.5,4.3,2.9,3.6ZM125,337l3.1-1.4c1.5-10.3,1-21.4,1.9-32.1.9-10.1,4.4-22,4.9-31.2s.2-3.1-1.4-4.3c-3.1,11.1-5.4,22.9-6.5,34.5s-.3,23.3-2,34.5ZM329,287l3.9-16.4-7.9-2.6c.7,3.8,1.5,7.7,2,11.5s-.8,10.3,2,7.5ZM366,309c3.7-3.9,2.9-11.5,4.6-16.5l-12.6-10.5,8,27ZM228,294c-11.1-.5-22.1,1.8-32.9,4.1-1,10.2,3.5,26.5,15.4,27.9,9.3,1.1,22.4,1.3,24.5-10-10.1,2.5-20.1-7.5-13.5-17l6.5-5ZM460,339c-13.4-4-24.6-15.8-32.2-27.3-2.8-4.2-4.2-9.3-7.8-12.7,1.2,13.1,25.8,42.1,38.5,42s1.6,0,1.5-2ZM421,312c-3.1-.7-2,2.1-1.6,4.1,3.4,13.4,16.7,29.1,28.6,35.9.3-1.9-.3-2.7-1.4-4.1-2.7-3.3-9.1-7.3-12.6-11.4-5.7-6.7-11.3-15.8-13-24.5ZM167,357c-3.3-3.9-3.7-9.8-6.2-14.3-4-7.2-11.4-12.1-12.4-.7l-1.3,1.5c-17.6-2.8,2.4,22.8.9,24.5s-2.1-1.5-2.5-2c-1.9-2.8-3.5-5.8-5.5-8.5l-5.4.4c-3.1,2.8,6.2,21.1,7.5,22s3-.9,4.9-.5c3.4.6,7.1,3.3,9.7,5.5h1.6c8.6-9,19.1-14.2,31.8-14.3,1.9-5.8,4.2-14.5-1.8-18.5-3.6-.9-7.4,6.6-7.3,9.9h-3c.4-6.1-4.7-28.3-13.3-25.8s4.2,15.8,2.3,20.9ZM323,378c1.5-.2,1.3,1.7,1.7,2.8,1.5,4.5,2.8,13.3,5.3,16.7,3.9,5.4,19.4,10.4,21.6,17.4s-2.1,19.9-3.5,28l23,11.1c-.7-11.3-4.6-22.4-5.9-33.6s.2-1.4,1.9-1.4c1.8,19.5,10.7,37.8,23.7,52,5.2.7,14.6-1.8,18.6,1.9s-2.2,9,8.2,10,20.8.1,28-9c.9-2.2-6-2.5-7.8-3.2-2.7-1.1-11.8-7.5-11.5-10.3s4.8-1.4,6.2-1.6c14.7-2.2,25.3-10.4,26.6-25.9h-14.5c-1.1,0-11.9-4.3-13.9-5.1-15.2-6.9-35.9-24.9-35.6-42.9,19.4-1.1,41.2,20.3,33,40l13.4,5c2.6-.6,1.7-12.7,1.3-15.2-.5-3.7-2.9-10-4.6-13.4-7.9-15.8-29.3-22.8-30.2-42.3-2.3-.6-1.6.4-2.3,1.3s-8.5,15.3-10.7,12.7l4-37c-2.9-.5-1.6.7-2.1,2.3-6.5,21.6-18.2,49-44.4,51.7-2.4.3-13.8.8-14.5-1.5-1.1-3.6,16.1-14.9,16-20.5-4.8,3-11.4,2-16.3,3.2s-13.4,4.4-14,4.8c-1.1.6-.6,1.9-.7,2-.2.1-2.6-1.4-3-1l-2.1,15.3,10.1,4.7-5-19ZM219.9,376.2c-7.6-5.5-16.9-7.8-25.9-10.2-3.3,8.5-1.5,5.1,1.4,9s3.4,11,8.8,13.2,10.4-4.8,14.7-7.3c1.4,1.6-9.7,11.9-15.7,9.3-9.3-4-4.3-18.4-19.6-17.2-18.8,1.5-26.7,22.4-41.1,25s-1.8-.7-1.5,1.4c5.1,5.2,21.1,26.8,26.7,28.3s9.4-7,12.9-7.6,7.9,4.4,11.9.9l12-27-6.5,22c8.9-2.6,12.7-2.9,16.7-11.8s5.7-17.3,5.8-21.2-2.1-3.9-.7-6.9ZM271,376c.8-13.4-14.5-4-20.5-4s-11-3.8-16.5-2c-.6,2.7.7,1.7,2,2.5,3.1,1.9,15.6,11.4,16.6,11.5,4,.6,5.7-5.4,11.9-5s7.5,7.1,10.9,6.7,11.2-7.4,16.7-6.8c.5-2.3-.3-1.6-1.3-2.2-5.3-3.5-13.7-1.3-19.7-.7ZM139,382l-4.5-9.9c-9.9,4.8-23.4,12.2-25.5,23.9,11.9-.1,18.7-12.2,30-14ZM248,396c-.3-1.4,1-3.2.8-4.4-.5-2.9-24.7-16.8-25.8-15.6-1.9,7.9,5.7,7.8,11.3,11.2s12.3,10,13.7,8.8ZM275,394l-1.5,3-7.4-9.6,2.9-3.9c-2.7-3.3-5.5-2.2-9-1.5l1.9,4.4-7.9,9.2-4-1.5-.6,5c3.4,1.1,10.4,9,11.2,12s-1.8,2.9-1.6,5c1.6-.1,2.8,1.9,4.3,1.8,6-.4,1.9-5.3,2.1-5.8s6.5-8.8,7-9.1c1.6-1.1,3.5-.6,4.3-1.1,2-1.3,1-7.1-1.8-7.8ZM316,381c-8.5-.2-16.9,1.3-25,3.5s-13.1,3.9-16.3,5.7-2.1,1.1-1.7,2.8c3.7-3,5.2,2,7.3,1.9,5.5-2.7,12.5-5.5,18.4-6.6s16.4-.6,17.1-2.9,0-3,.1-4.4ZM144.7,382.1c-3.1.9-9,13.1-3,14.7,4,1,10-6.5,13.3-8.4.5-2.2-7.9-7-10.3-6.4ZM141,383c-10.5,1.9-17.8,12.4-28,14.5-1.9.4-3.6-1.4-5,.9,3.9,7.9,10,15.7,17,20.9s6.2,3.3,8.9,5.1,5.1,6.7,9.5,6.4,11.4-6.8,15.6-8.5c-6.3-7.4-23.2-20.5-22-30.9s3.5-5.4,4-8.6ZM416.6,400.4c-1.9-2-6.5-5.1-9-6.5s-4.9-3.2-6.7-2.3c5.8,10.5,14.1,19.7,24,26.5,1.5-2-6.3-15.5-8.3-17.6ZM307.9,424.9c.6-1.5,2-4.2.2-5.4-11.6-1.1-22.1-7.9-28.5-17.4l-4.5,4.5c8.7,9.2,19.7,18,32.8,18.4ZM216.1,421.9c13.3-2,27.9-6.3,37.9-15.4,0-.9-4.1-2.4-5.3-2.2s-11.7,6.5-15.1,7.8c-5.9,2.2-12.2,4.3-18.5,4l1.1,5.9ZM256.8,424.8c-.2-1.8,1-5.1.8-6.4s-2.3-2-2.5-3.1,3-3.6.9-6.4c-4.8,5.1-10.1,10.8-17,13l.5,2c7-3.7,11,4.3,17.3.8ZM281,422l-9.5-13-2.4,2.6,2,4.8c-4.2,1.9-4.5,4.1-4.1,8.6,5.7-1.8,8.8,1.3,14-3ZM211,414c-.4-.5-11.8,3.7-13.1,4.4-2.8,1.7-3.6,4.6-6.6,5.4s-7.9.5-10.8-1.7c-6.4,10.1-12.9,11.6-21,2l-4.9,2.8-.6,2.1c6.7.9,9,10.4,17.2,8.8,6.2-1.2,6.2-6.8,9.4-8.6s10.6-2.9,14.6-4.4c5.3-2.1,10.4-4.6,15.6-6.9l.2-3.8ZM213,420c-5,2.2-9.6,4.7-14.7,6.7s-12.1,3.2-15.2,4.8-3.6,7.5-9.6,8.4-10.6-.8-15.4-4.5-2-4-4.6-4.5c-5.3-1-14.3,6.5-20.5-2,.4,9.1,13.5,4.5,18.3,6.2s1.9,2.9,3.2,3.8c3.5,2.7,7.8,5.6,12.5,5l-3,6.5,3.8,6c-7.4,5.6-.7,6-.8,9s-2.1,2.6-1.9,3.9c.3,2.1,5.5,5.1,5.7-.6s-1.3-4.3,2.1-7.3l-2.8-3.9,5-6.2-.2-1.4c-9.7-5.8-.4-5.2,3.5-7.2s5.5-7.1,7.7-8.3c6.9-4,25.2-3.3,27-14.5ZM264.9,421.1l-4.9-1.1c-.5,3.7,0,5.6,3.5,7,2.7.7,1.3-5,1.4-5.9ZM238.8,431.2c.4.2.7,1.9,1.8,2.6,6.4,4.1,6.6.2,10.9.2s4.1,2.3,8,2,4-1.8,5.2-1.9,2.9,2,5.8,1.9c4.7-.1,6.3-4.6,8.1-4.9s2.6.8,3.8.7,7-3.3,6.6-5.4c-6.3-7.3-10.3,2-12.6,2.4s-2.7-2.2-5.8-1.9-4.4,3-6.1,3-4.2-3-7-2.9-3.2,1.8-5,1.8-4.6-2.8-7.1-2.9c-3.9-.2-4.8,3.7-9.9-1.7-1,1.2-8.3,2.3-7.5,4.1,1.7,3.8,8.9,1.7,10.8,2.7ZM162.9,448.9c1.3-1.9-6.9-5.3-8.8-6.5s-3-3.7-4.8-4.2c-2.7-.8-6.4,0-9.6-.4-7.3-1.2-8.9-7.3-9.7,6.7s11.3,32.3,22.3,37.7c11.3,5.6,27.1,4.7,38.1-1.3s21.9-38.9,22.6-54.9c-6,6.9-18.9,7.3-25.4,11.1s-3,4.2-5.1,5.9-5.5,2.3-7.5,4.5c8.4,6.2-5.2,7.2,0,13.1-2.9,6.1.5,11.2-6.7,15.4-4.4-2.5-8.4-5.5-4.4-10.3l-3-6,3.1-3.1-3.2-6c-.5-1.7,1.9-1.4,2-1.5ZM300.1,432.9c2.2.8,4.6,1.5,6.3,3.2s3.6,10.9,6.1,7-.3-13.3-.5-17c-3.8,3.9-6.4,4.7-12,4v2.9ZM316,456c-.2-3.7-1.8-7.5-5.1-9.4s-3.7-.4-4.5-1.5,0-3.6-1.9-6.1-5.1-2.3-6.6-3.4-2.3-10.6-7.5-6.6,2.8,7.8,4.3,9.3.7,4.9,3.7,6.8,4.4.9,5.1,1.9.4,3.5.9,5.1c1.8,5.2,6,3.7,9.5,5.5s5.7,8.6,11.1,7.4l-1-4c4.4.3,6.3-4.4,7-8l-15,3ZM232.9,434.1c-4.1.7-6.7-4.9-9.4-5.1s-5.7,2-8.3,2.2l-4.1,20.6,5.9,2.1c1.3-8.6,7.1-10.5,15-8.4l.9-11.5ZM244,438c-4.1.6-5.5-3.4-9-4l-1,10c.4.5,7.7-3.1,8.7-3.8s1.8.1,1.3-2.2ZM288,446c0-3.9.8-8.2-2.5-11l-7.5,5c-.5.8,9.3,6.7,10,6ZM257,439c-4-.6-8.8-4.2-10,2l8,4,2-6ZM251.1,457.8c1.2.7,1.6-.3,2.4-.8,5.2-3.8,13.5-13.2,11.5-20-6.9,1.7-7.3,6.4-10.6,10.9s-5.8,4.4-5.5,7.4l2.2,2.5ZM275,442l-1.7-2.8-6.3-.2v6s8-3,8-3ZM306,460c-.6-.8-4.3-5.7-4.5-6-.7-1.7-.2-4.1-.6-4.8s-9.9-2.5-8.8-8.6l-3.1-.6.4,10.1c7.8,1.6,11.4,0,10.6,9.9h6s-5.9,2.1-5.9,2.1l-2.1,11.9c5.8-.6,10.9,2.8,14.5,7s2.6,5,3.5,5.5c1.5.9,4.1.3,6.1.9s2.8,2.8,4.9,2.6c1.6-1.6-16.7-26.4-19-29.3s-1.9-.6-2-.7ZM248.9,449.1c-4.5-2.9-4.7-3.6-9.9-1.1-.8,1,7.3,4.8,8.4,5l1.5-3.9ZM275,456l-8.5-10c-8.5,3.7,1.3,7.1,2.6,11.9l5.9-1.9ZM273.1,449.1c-.7,1,2,5.4,3.4,5.6l7.5-3.2c-4.1-2.7-6.4-5.9-10.9-2.4ZM250,463c-9.8-3.9-18.8-11.9-29.9-10.9v5.8c9.3,0,17.6,4.8,25.5,9.1l4.4-4ZM216,460l.6-4-6.6-3-1,5,7,2ZM264,457c-3-1.3-4.5-2.5-7.5,0l2.5,2-7.5,10-3.5-2c-2.3,4.4.2,6-1,10,2.4.5,1.7-.4,2.5-2h2.4c.5,4.6,6.8,7.9,2.1,11.5,2.3,2.8,4.8,2.7,8,1.5-3.7-5.1,2.6-8.7,5.5-13l3.5,2c2.1-4.5.7-5.5,0-10-2.9-1.4-2.5,4.4-3.5,4-3.9-4.6-7.4-8.2-3.5-14ZM297,456c-1.1-1.1-25.6,6.3-28.7,7.8s-1.6.1-1.3,2.2l4-.6,2.5,3.6c7.2-3.5,15.5-6.5,23.5-7v-6ZM349.7,462.3c-1.1-1.2-4.1-1.3-5.7-1.3-1.6,4.7,3.5,4.9,4.5,7s.1,4.3.6,4.9,3.4.4,4.9,1.6c2.7,2.3,1.7,8.9,9,7.5,2.6-7-4.8-7.5-5.8-9.2s.2-3.6-.6-4.9-3.8-.7-5.2-1.8-1-3.1-1.7-3.8Z"/>
  <path d="M107,319c-7.3,20.8-11.8,40.3-11,62.5s4,10.7-6.5,4.5c-24.4-14.6-9.7-44.6,6.5-59.5s10.2-8.4,11-7.5ZM90,379v-19.5l5.5-23.5c-10.4,10.6-20.6,31.8-5.5,43Z"/>
  <path class="st0" d="M223,340c2.4,1.8-5.2,3.4-5.9,3.6-17.9,2.8-35.8-6.8-47-20.1l-9-14.5c3.1,13.9,14.1,23.6,26,30.5s12.3,7.4,18.7,11.3,12.8,6.1,20.3,5.2c0,6.4-11,11.2-16.5,11-4.1-.1-9.9-3.6-14.6-3.5-2-1.4.8-12.6-5.7-14.4-3.9-1.1-6.1,3.8-8.8,5.8-1,0-2.6-8.6-3.3-10.7-1.7-4.6-5.8-11.9-11.6-11.3-4.8.4-4.3,7.7-9,1l-13.1-65.9c4.5-5,.2-5.2.5-8.5s18.2-17.6,21.5-20.6c6.3,4.5,8.3-4,12.5-7.5l-3-3c4.3-2.8,1.7-6,2.2-8.8.8-4.9,4.6-9.6,4.8-14.7l-6,16c-2.6-1.8-8.5-2-10.5-4-5.2-5.3-.2-19-16-9.9l-1.5-2c-.7,4.5-6.2,5.3-10,6.5s-1.4,1-1-1c3.5-18.3,26.8-49.8,41-62,85.6-73.6,204.9-25.3,233.3,78.7,9.9,36.4,13.2,107.4-11.1,138.5-.9,1.2-1.2,2.7-3.2,2.3,6-14.8,2.6-31.1,4-46.5.9-9.4,4.3-20.1,5-30,1.4-21.2-1.8-46.2-7.3-66.7s-5.2-19.7-10.7-26.8c8.9,22.3,14.8,46.4,16,70.5,1.8,36.1-9.7,123.4-60.6,119.5-1.5-.1-2.9.8-2.5-1.5,10.1-6,14.1-17.4,23-24.5-16.4,7.8-34.6,11.3-49-2.5-.4-2.4,1.1-1.2,2.5-1.5,65.9-11.4,63.5-101.3,47.7-150.8s-15.3-39.3-26-51c-.6-.7-.6-2.9-2.3-.8,28.2,37.7,40.7,87.8,34,134.5l-14.8-11.7-15.2-48.8c0-1.2,13.6-5,13-9.5-3.4-.4-15.2-4.3-16.5-7-2.1-13.7-5.3-27.2-10.5-40-1.9-.2-.8,2-.5,3,3.8,11.7,8.4,23.5,8.5,36-9.5-6.4-17-15.5-21.5-26s-6.5-19-6.5-23.5v-19.5h-1v23.5c0,3.1,5,17.9,6.5,21.5,7.2,16.9,21.2,27.8,38.5,33.5.5,2-.8,1.3-2,2-10.4,5.7-23.5,4.6-33.7-1.3-1.7-1-11.6-10-12.3-9.2-.8,8.7,1.5,16.8,4,25-4.5-2.4-8.4-7-11.2-11.3-17.1-25.4-13.6-61.5,1.4-87,1.7-2.9,7.1-8.6,7.8-10.2s.3-1.6-.5-1.5c-21.4,21.1-28.4,64.6-15.4,91.4s9.2,12.1,10.3,15.5.3,10.5.7,13.5c2.2,15.1,4.5,31.9,15.9,43.1-12.8,7.1-28.5,2-37-9.5l-2.5,14c-20.2-25.8-19.5-61.9-10.5-92-1.7.3-1.7,2-2.3,3.2-4.9,10.4-3.6,24.1-5.7,35.3l3,42.5c-13-11.7-17-31-17-48l9,.5c-1.4-2.7-8.4-.9-9-1.5-.8-30.3,10.6-59.4,29-83-2-.4-2.8,1.3-4,2.5-11,11.4-15.7,28.6-22.8,42.2s-16.5,25.5-24.2,37.8c-11.9-.2-22.5,3.3-34,5.5,1.9-10.9,7-21.3,9.6-31.9s1.3-3.3-.5-3c-5.1,9.6-6.3,25.9-10.8,34.7s-5.8,2-5.2,5.3l4-2c-1,9.9-3,19.7-3.9,29.7s.9,3.6.7,4.7c-.4,2.1-4.3,2.8-3.8,5.6l3-1c-.3,24.9,14.9,54.6,42,57-10.4-3.6-19.8-7.7-26.3-17-1.6-2.3-3.7-3.7-5.9-7.3s-7.8-18.6-7.4-23.2,6.2-6.9,8.1-7.5c3-.9.5,2.3.5,2.5v18c0,9.6,10.7,21.6,20.4,22.6,13,1.3,25-2,25.5-17.1-17.1,13-21.3-18.9-4.7-13.8,2.5.8,3.6,5,6.7,4.8-1.9-8-.1-16.5-5-24l17.3,1.2,10.7,8.8-1-14,6.2,13.3,9.3,12.7,1.5-14c1-1.2,6.4,5,7.7,5.8,8.3,5.6,23.2,7.1,31.3.6l-4.9-8c3.7-9.1,7.4-18.4,6.9-28.5,2.5-.2,1.7-.2,2,1.5s1,6.6.9,6.9c-.3,1.5-3.2.9-2.9,2.5l3.1.6c1.1,8.2,4.4,17.2,2.9,25.4,2.7.3,3.6-3.1,4.5-5,2.2-4.9,3.7-11.6,4.5-17l19.7,9.3c1.3,9.1,10,23.9,10.3,32.3s-6.1,18.1-7.6,18.5c-3.9-.5-10.3-11-12-11.1s-3.3,1.9-4.9,2c-3.3.2-14.5-4-20-4s-12,2.7-17.5,3.1c-.9,4.6,4.2-1.3,4,2.5l-5,6.5c16.1-2.7,34.7,0,48,9.5-8.3,11.3-24.1,17.4-38,17.5,2.4,7.3,10.8,8.7,16,13-6.3,1.6-12.7,2.2-19,3.5s-10.7,3.5-12.5,3.5-6.6-4.1-10.2-4.7-8,0-12.2.7c-1.8-11.2-16.9-4.1-23.6-3.9s-7.2-2.1-11-2.1-5.1,1.6-7.1,1.8-7.4-2.4-10.4-3.2c3-2.9,6.4-6,7-10.5-10-.8-19.6-2-27-9.5,7.9.1,17.4,1.5,24-4,.5-2.6-1.8-1.1-3-1.5ZM328.5,310c-4.8-.5-11,0-16,0s-1.8,1.7-1.5,2c11.6-2.8,23.4,1,34.5,4l-6.5-3.5c-3.1-.6-7.6-2.3-10.5-2.5ZM279,364c3.9-2,7.4-7.7,5.5-12-2.9-6.3-27.5-9.8-32-4s-1.6,13.4,3.4,12.5c-10.2-15.1,6.7-14.3,17.2-12.2s12,3.6,9,10.5-3.5,2.8-3.2,5.3Z"/>
  <path class="st0" d="M323,378c0,0-.4-1.4.7-2s12.6-4.4,14-4.8c4.8-1.2,11.4-.2,16.3-3.2,0,5.6-17.1,16.9-16,20.5s12,1.8,14.5,1.5c26.2-2.7,37.8-30,44.4-51.7s-.8-2.8,2.1-2.3l-4,37c2.2,2.6,10.1-11.9,10.7-12.7s0-1.8,2.3-1.3c.8,19.5,22.3,26.5,30.2,42.3s4.1,9.7,4.6,13.4,1.2,14.6-1.3,15.2l-13.4-5c8.2-19.6-13.6-41.1-33-40-.3,17.9,20.5,36,35.6,42.9s12.7,5.1,13.9,5.1h14.5c-1.3,15.5-11.9,23.7-26.6,25.9-1.3.2-5.8-1.8-6.2,1.6s8.8,9.2,11.5,10.3,8.7,1.1,7.8,3.2c-7.2,9.1-17,10.1-28,9s-4.2-6.3-8.2-10-13.4-1.3-18.6-1.9c-13.1-14.2-21.9-32.6-23.7-52-1.7,0-2.2-.6-1.9,1.4,1.3,11.2,5.2,22.3,5.9,33.6l-23-11.1c1.4-8.1,6-20,3.5-28s-17.7-12-21.6-17.4-3.7-12.2-5.3-16.7-.2-3-1.7-2.8l5,19-10.1-4.7,2.1-15.3c.4-.4,2.8,1.1,3,1Z"/>
  <path class="st0" d="M162.9,448.9c-.1.2-2.5-.2-2,1.5l3.2,6-3.1,3.1,3,6c-4,4.8,0,7.8,4.4,10.3,7.2-4.2,3.8-9.3,6.7-15.4-5.2-5.9,8.4-6.8,0-13.1,2-2.2,5.2-2.6,7.5-4.5s2.8-4.6,5.1-5.9c6.5-3.9,19.4-4.2,25.4-11.1-.7,16-7.5,46.6-22.6,54.9s-26.7,6.9-38.1,1.3c-11-5.4-23-25.7-22.3-37.7s2.4-8,9.7-6.7c3.1.5,6.9-.3,9.6.4s3.1,3.2,4.8,4.2,10.2,4.6,8.8,6.5Z"/>
  <path class="st0" d="M219.9,376.2c-1.5,3,.7,5.3.7,6.9,0,3.9-4,17.3-5.8,21.2-4.1,8.9-7.8,9.2-16.7,11.8l6.5-22-12,27c-4,3.5-10.2-1.2-11.9-.9-3.5.7-5.3,9.6-12.9,7.6s-21.6-23.1-26.7-28.3c-.3-2.2.2-1.2,1.5-1.4,14.4-2.5,22.4-23.4,41.1-25,15.3-1.3,10.3,13.1,19.6,17.2s17.2-7.7,15.7-9.3c-4.3,2.5-9.5,9.5-14.7,7.3s-5.6-8.9-8.8-13.2-4.8-.5-1.4-9c9,2.3,18.2,4.7,25.9,10.2Z"/>
  <path class="st0" d="M167,357c2-5-9-19-2.3-20.9s13.7,19.8,13.3,25.9h3c-.1-3.3,3.8-10.8,7.3-9.9,6,3.9,3.7,12.7,1.8,18.5-12.7.1-23.1,5.3-31.8,14.3h-1.6c-2.6-2.2-6.3-4.9-9.7-5.5s-4.6.7-4.9.5c-1.4-.9-10.6-19.2-7.5-22l5.4-.4c2,2.7,3.7,5.7,5.5,8.5s.9,3.9,2.5,2-18.6-27.3-.9-24.5l1.3-1.5c1-11.4,8.4-6.5,12.4.7s2.9,10.5,6.2,14.3ZM152,346l-3,.5,6,12.8,3,.7c-2-4.6-5.4-8.9-6-14Z"/>
  <path class="st0" d="M334,268l-9.1-2.7c-2.1-6.3-.6-15.6-5.9-20.3.4,6.9-.4,13.1-1.7,19.8s-3.4,14.1-4.8,16.2-1.6.5-2.4-.7c-6.7-10.1-8.4-32.4-8.6-44.4l8.5,5c-3.5-7.8-4.5-15.5-5-24,5,3.2,9.4,7.3,15,9.5s10.7,2.1,16.5,3.5c1.6,12.7-1.1,25.5-2.6,38.1Z"/>
  <path class="st0" d="M141,383c-.5,3.2-3.6,5.2-4,8.6-1.2,10.4,15.7,23.6,22,30.9-4.2,1.7-11.4,8.2-15.6,8.5s-6.4-4.3-9.5-6.4-6.3-3.2-8.9-5.1c-7.1-5.3-13.1-13.1-17-20.9,1.4-2.4,3.1-.5,5-.9,10.2-2.2,17.5-12.6,28-14.5Z"/>
  <path class="st0" d="M438,204c0,17.8-4.7,38.4-20,49-.3-14-5-27.7-9-41,6.5-.8,10.3-6.9,13.5-12,5.2,3.8,8.9,5.9,15.5,4Z"/>
  <path class="st0" d="M228,294l-6.5,5c-6.6,9.5,3.3,19.5,13.5,17-2.1,11.3-15.3,11.1-24.5,10-11.9-1.4-16.4-17.7-15.4-27.9,10.8-2.3,21.8-4.6,32.9-4.1Z"/>
  <path class="st0" d="M221,237l-18.1,29-6.8-.8c-1.3,6.6-7.6,9.2-13.1,11.8-1.1-1.3,2.7-30.8,4.5-33,10.4-5,22.2-5.8,33.5-7Z"/>
  <path class="st0" d="M242,237c-.7,8.6,3.4,15.2-3.5,22.1-7.2.2-14.7.1-21.9,1s-9.4,1.8-5.1,2.9c1.9,0,5.8-2,7-2h18.5c-3.2,6.5-12.1,3.4-18.5,4s-9.8,1.6-14.5,3l19-31h19Z"/>
  <path class="st0" d="M159,206l4.2,12.8c2.1,1.5,13.5,2.5,12.8,5.7l-35.8,33.7,2.9,6.9c-3.8-1.4-5,0-8.4,1-8.3-7.6-2.6-4.8-1.7-7.6s-6-14.9-7.4-18.4-4.5-15.7-6.1-17.9c-2.3-3.4-2.2,2.2-5.5,1,2.8-5.3-2.5-3.9-3-8,6-2.4,8.3-4.7,13,1.5.8,2-1.3,1.4-1.3,1.5-1.2,1.3-.6,1.2.8.9,5.4-1.1,34-14.1,35.6-13ZM159.2,221.8c-1.3-1.2-2.4-7.8-3.7-9.8l-1.9-1-31.2,10.9c2.4,12.7,8.7,24.2,13.6,36,1.5.4,1.7-.4,2.5-1,1.9-1.3,6-5.2,8-7,3.5-3.2,22.6-21.9,23.5-24.5-2.1-2.1-9.2-2.2-10.8-3.7Z"/>
  <path class="st0" d="M127,185c.4,6.7,7.1,10.8,13,12.5-4.3,8-3.3,17.2-14.4,18.6-2.4-5.2-6.3-5-11.1-6-2.5-7.4-3.9-15.2-3.5-23,2.9.3,4.1,2.3,7.4,2s4.9-4.6,8.6-4Z"/>
  <path class="st0" d="M213,420c-1.7,11.2-20.1,10.6-27,14.5s-4.3,6.6-7.7,8.3-13.2,1.4-3.5,7.2l.2,1.4-5,6.2,2.8,3.9c-3.4,3-2,4.3-2.1,7.3-.1,5.6-5.4,2.6-5.7.6s1.9-2.4,1.9-3.9c0-3-6.6-3.4.8-9l-3.8-6,3-6.5c-4.7.6-9-2.3-12.5-5s-1.6-3.3-3.2-3.8c-4.8-1.7-17.9,2.9-18.3-6.2,6.2,8.5,15.2,1,20.5,2s2.6,3,4.6,4.5c4.8,3.7,9.1,5.5,15.4,4.5s6.8-7,9.6-8.4,11.1-3.1,15.2-4.8,9.8-4.6,14.7-6.7Z"/>
  <path class="st0" d="M271,376c6-.6,14.4-2.7,19.7.7s1.8,0,1.3,2.2c-5.5-.6-12.4,6.2-16.7,6.8s-5.3-6.4-10.9-6.7-7.9,5.6-11.9,5-13.5-9.7-16.6-11.5-2.5.2-2-2.5c5.5-1.8,12.2,2,16.5,2s21.3-9.5,20.5,4Z"/>
  <path class="st0" d="M297,60c.9,1.2-6.8,6.9-.5,14s4.9,2.2,4.5,4.9c-8.1-1.2-22,10.5-21,18.5s6.1,2.6,5,5c-2.5,5.3-10.3,1.1-11.6-4.4-2.6-11.1,7.3-20.8,17.6-23.1-8.3-7-6.3-19.1,6-15Z"/>
  <path class="st0" d="M238.8,431.2c-1.9-1.1-9,1-10.8-2.7s6.5-2.9,7.5-4.1c5.1,5.4,6,1.4,9.9,1.7s4.8,3,7.1,2.9,3.1-1.8,5-1.8c2.8,0,5.3,2.9,7,2.9s3.5-2.7,6.1-3,4.6,2.1,5.8,1.9c2.3-.4,6.3-9.7,12.6-2.4.5,2.1-4.8,5.3-6.6,5.4s-2.8-.9-3.8-.7c-1.8.3-3.5,4.8-8.1,4.9s-4.6-2-5.8-1.9-2.8,1.7-5.2,1.9c-3.9.3-5.8-1.9-8-2-4.3,0-4.5,3.8-10.9-.2s-1.4-2.4-1.8-2.6Z"/>
  <path class="st0" d="M340,229l14,49-17.9-9.7c.6-7.7,2.7-16.2,2.9-23.8s-1-9.6-1.1-14,.1-1.6,2-1.5Z"/>
  <path class="st0" d="M316,456l15-3c-.7,3.6-2.6,8.3-7,8l1,4c-5.4,1.2-7.4-5.5-11.1-7.4s-7.6-.3-9.5-5.5-.2-4.1-.9-5.1-3.5-.9-5.1-1.9c-3-1.9-2.8-5.8-3.7-6.8-1.5-1.6-11.3-4-4.3-9.3s6.3,5.7,7.5,6.6,4.3.2,6.6,3.4,1.1,5,1.9,6.1,3.2.8,4.5,1.5c3.3,1.9,4.9,5.7,5.1,9.4Z"/>
  <path class="st0" d="M356,129c13.1.5,10.2-19.8,5-27,9.2,2.5,10.4-9.5,11.9-10.6,6.1-4.3,11,8.7,2.4,13.4-2.1,1.2-4.8.7-6.4,2.7,4.1,8.8,4.5,24-6.5,27.6-2,.8-7.6-5.1-6.5-6.1Z"/>
  <path class="st0" d="M164,97c-.8,7.3,4.8,12.1,12,11-2.3,5.4-3.8,19.4,1.4,23.1s5,.1,6.6,2.5c-.3,1.5-.6,3.1-2.2,3.8-11.4,5-17.8-15.5-11.8-23.3-4.5-.4-11-2-12.5-7s-.4-10.6,6.5-10.1Z"/>
  <path class="st0" d="M232.9,434.1l-.9,11.5c-8-2-13.7-.1-15,8.4l-5.9-2.1,4.1-20.6c2.5-.3,6-2.5,8.3-2.2s5.3,5.8,9.4,5.1Z"/>
  <path class="st0" d="M306,460h-6c.9-10-2.8-8.3-10.6-9.9l-.4-10.1,3.1.6c-1.1,6,8.4,7.9,8.8,8.6s0,3.2.6,4.8,3.9,5.3,4.5,6,1.3-.2,2,.7c2.2,2.9,20.6,27.6,19,29.3-2.2.3-3.1-1.9-4.9-2.6s-4.6,0-6.1-.9-2.1-4-3.5-5.5c-3.6-4.1-8.7-7.5-14.5-7l2.1-11.9,5.9-2.1Z"/>
  <path class="st0" d="M211,414l-.2,3.8c-5.2,2.3-10.3,4.8-15.6,6.9-4,1.5-11.7,2.8-14.6,4.4s-3.3,7.4-9.4,8.6c-8.3,1.6-10.5-7.9-17.2-8.8l.6-2.1,4.9-2.8c8.1,9.5,14.5,8.1,21-2,2.9,2.2,7.3,2.5,10.8,1.7s3.8-3.7,6.6-5.4,12.6-5,13.1-4.4Z"/>
  <path class="st0" d="M139,382c-11.3,1.8-18.1,13.9-30,14,2.2-11.7,15.6-19.1,25.5-23.9l4.5,9.9Z"/>
  <path class="st0" d="M242,235h-16l19-31c-1.6,10.3-3.9,20.4-3,31Z"/>
  <path class="st0" d="M275,394c2.8.7,3.7,6.5,1.8,7.8s-2.8,0-4.3,1.1-6.8,8.6-7,9.1,3.8,5.4-2.1,5.8-2.7-2-4.3-1.8c-.2-2.1,2.3-2.7,1.6-5s-7.7-10.9-11.2-12l.6-5,4,1.5,7.9-9.2-1.9-4.4c3.5-.7,6.3-1.8,9,1.5l-2.9,3.9,7.4,9.6,1.5-3ZM254.1,399.8l9.4,11.2,8.5-11.5-8.5-11.5c-1.5,1.8-10.5,9.7-9.4,11.8Z"/>
  <path class="st0" d="M316,381c0,1.4.3,3-.1,4.4-.7,2.3-13.7,2.2-17.1,2.9-5.9,1.1-12.9,4-18.4,6.6-2.1.2-3.6-4.8-7.3-1.9-.4-1.7.4-2,1.7-2.8,3.2-1.8,12.4-4.7,16.3-5.7,8.1-2.2,16.5-3.7,25-3.5Z"/>
  <path class="st0" d="M264,457c-3.8,5.8-.4,9.3,3.5,14,1,.4.6-5.4,3.5-4,.7,4.5,2.1,5.5,0,10l-3.5-2c-2.9,4.3-9.2,7.9-5.5,13-3.1,1.2-5.6,1.3-8-1.5,4.7-3.6-1.7-6.9-2.1-11.4h-2.4c-.8,1.5,0,2.4-2.5,1.9,1.2-4-1.3-5.6,1-10l3.5,2,7.5-10-2.5-2c3-2.5,4.5-1.2,7.5,0ZM259.5,463l-7.3,9.6,6.3,10.3,7.4-9.7-6.4-10.3Z"/>
  <path class="st0" d="M216.1,421.9l-1.1-5.9c6.3.4,12.7-1.8,18.5-4,3.4-1.3,13.9-7.6,15.1-7.8s5.3,1.3,5.3,2.2c-10,9.1-24.6,13.5-37.9,15.4Z"/>
  <path class="st0" d="M307.9,424.9c-13.2-.3-24.2-9.1-32.8-18.4l4.5-4.5c6.4,9.5,17,16.4,28.5,17.4,1.8,1.2.4,3.9-.2,5.4Z"/>
  <path class="st0" d="M125,337c1.7-11.2.9-23,2-34.5s3.4-23.4,6.5-34.5c1.7,1.2,1.5,2.5,1.4,4.3-.5,9.1-4,21.1-4.9,31.2-.9,10.7-.4,21.7-1.9,32.1l-3.1,1.4Z"/>
  <path class="st0" d="M149,335c-2.4.7-2.7-1.8-2.9-3.6-2.2-19.2-7.9-42.2-8.8-60.2s-.9-2.8,1.2-4.2c1.9,1.1,1.2,2.8,1.6,4.4,2.4,10.5,4.2,22.5,5.8,33.2s4.4,28.8,3.2,30.3Z"/>
  <path class="st0" d="M435,268l6-3c-.9,3.9-1.2,4.9,1.9,7.7v1.8c.1,0-6.4,5.5-6.4,5.5l-1-3c-.8-1.1-1.2-1.4-2.5-.6-2.6,1.7-7.6,15.6-12,17.5.6-7.3,11-15.7,12-22.6s-5-18.9-4-27.4l3.3,9.2,2.7,14.8Z"/>
  <path class="st0" d="M416.6,400.4c2.1,2.2,9.9,15.7,8.3,17.6-9.9-6.8-18.1-16-24-26.5,1.8-.9,5.1,1.4,6.7,2.3,2.5,1.5,7.1,4.5,9,6.5Z"/>
  <path class="st0" d="M250,463l-4.4,4c-7.9-4.3-16.1-9.2-25.5-9.1v-5.8c11.1-1,20.1,7,29.9,10.9Z"/>
  <path class="st0" d="M248,396c-1.4,1.2-11.3-7.3-13.7-8.8-5.6-3.4-13.2-3.3-11.3-11.2,1-1.2,25.3,12.7,25.8,15.6s-1.1,3-.8,4.4Z"/>
  <path class="st0" d="M297,456v6c-8,.5-16.3,3.5-23.5,7l-2.5-3.6-4,.6c-.3-2.1-.1-1.6,1.3-2.2,3.2-1.4,27.7-8.8,28.7-7.8Z"/>
  <path class="st0" d="M337.9,83.1l7.1,9.8-13,4c-1.1-5.5-5.9-8.8-9-13l14.9-.9Z"/>
  <path class="st0" d="M366,309l-8-27,12.6,10.5c-1.7,5.1-.9,12.7-4.6,16.5Z"/>
  <path class="st0" d="M144.7,382.1c2.4-.7,10.8,4.2,10.3,6.4-3.3,1.9-9.3,9.4-13.3,8.4-6-1.6,0-13.9,3-14.7Z"/>
  <path class="st0" d="M460,339c.1,1.9.5,2-1.5,2-12.7.1-37.3-28.9-38.5-42,3.6,3.5,5,8.5,7.8,12.7,7.6,11.5,18.8,23.2,32.2,27.3Z"/>
  <path class="st0" d="M256.8,424.8c-6.4,3.4-10.3-4.5-17.3-.8l-.5-2c6.9-2.2,12.2-7.9,17-13,2.1,2.7-1.1,5.3-.9,6.4s2.3,1.8,2.5,3.1-1,4.6-.8,6.4Z"/>
  <path class="st0" d="M349.7,462.3c.6.7.4,2.8,1.7,3.8s4.4.7,5.2,1.8,0,3.6.6,4.9,8.4,2.2,5.8,9.2c-7.3,1.5-6.3-5.2-9-7.5s-4.6-1.3-4.9-1.6c-.5-.6.2-3.3-.6-4.9s-6.1-2.3-4.5-7c1.6,0,4.7,0,5.7,1.3Z"/>
  <path class="st0" d="M251.1,457.8l-2.2-2.5c-.3-3,3.8-5.1,5.5-7.4,3.2-4.6,3.7-9.2,10.6-10.9,2,6.8-6.3,16.3-11.5,20s-1.2,1.5-2.4.8Z"/>
  <path class="st0" d="M421,312c1.6,8.7,7.3,17.9,13,24.5s9.9,8.1,12.6,11.4,1.7,2.2,1.4,4.1c-11.8-6.9-25.2-22.5-28.6-35.9s-1.6-4.7,1.6-4.1Z"/>
  <path class="st0" d="M281,422c-5.2,4.3-8.2,1.2-14,3-.5-4.5-.2-6.7,4.1-8.6l-2-4.8,2.4-2.6,9.5,13Z"/>
  <path class="st0" d="M300.1,432.9v-2.9c5.5.7,8,0,11.9-4,.3,3.8,2.4,14.1.5,17s-4.3-5.1-6.1-7-4.1-2.4-6.3-3.2Z"/>
  <path class="st0" d="M329,287c-2.8,2.8-1.9-6.8-2-7.5-.5-3.8-1.3-7.7-2-11.5l7.9,2.6-3.9,16.4Z"/>
  <path class="st0" d="M275,456l-5.9,1.9c-1.3-4.8-11.1-8.3-2.6-11.9l8.5,10Z"/>
  <path class="st0" d="M288,446c-.7.7-10.5-5.2-10-6l7.5-5c3.3,2.8,2.5,7.1,2.5,11Z"/>
  <path class="st0" d="M244,438c.5,2.3-.3,1.6-1.3,2.2s-8.3,4.2-8.7,3.8l1-10c3.5.6,4.9,4.6,9,4Z"/>
  <path class="st0" d="M273.1,449.1c4.5-3.6,6.8-.3,10.9,2.4l-7.5,3.2c-1.3-.1-4.1-4.6-3.4-5.6Z"/>
  <path class="st0" d="M257,439l-2,6-8-4c1.2-6.1,6-2.6,10-2Z"/>
  <path class="st0" d="M244.8,261.2c.3.2,2.5,5.4,2.2,5.8l-10-1c-1.2-4.3,5.3-6.4,7.8-4.8Z"/>
  <path class="st0" d="M248.9,449.1l-1.5,3.9c-1.2-.3-9.2-4-8.4-5,5.2-2.5,5.4-1.8,9.9,1.1Z"/>
  <polygon class="st0" points="275 442 267 445 267 439 273.3 439.2 275 442"/>
  <polygon class="st0" points="216 460 209 458 210 453 216.6 456 216 460"/>
  <path class="st0" d="M264.9,421.1c0,.9,1.4,6.6-1.4,5.9-3.5-1.4-4-3.3-3.5-7l4.9,1.1Z"/>
  <path class="st0" d="M90,379c-15.1-11.2-4.9-32.3,5.5-43l-5.5,23.5v19.5Z"/>
  <path d="M279,364c-.3-2.4,2.4-3.3,3.2-5.3,3-6.9-3.2-9.4-9-10.5-10.6-2-27.5-2.9-17.2,12.2-5,1-6.2-8.9-3.4-12.5,4.5-5.8,29.1-2.3,32,4s-1.6,10-5.5,12Z"/>
  <path d="M328.5,310c2.9.3,7.4,2,10.5,2.5l6.5,3.5c-11.1-3.1-22.9-6.8-34.5-4-.3-.3,1.3-2,1.5-2,5,0,11.2-.5,16,0Z"/>
  <path d="M152,346c.6,5.1,4.1,9.3,6,14l-3-.7-6-12.8,3-.5Z"/>
  <path d="M159.2,221.8c1.6,1.5,8.6,1.6,10.8,3.7-.8,2.6-19.9,21.3-23.5,24.5s-6.1,5.7-8,7-1,1.4-2.5,1c-4.9-11.8-11.2-23.3-13.6-36l31.2-10.9,1.9,1c1.3,2,2.5,8.5,3.7,9.8Z"/>
  <path d="M254.1,399.8c-1.2-2.1,7.8-10,9.4-11.8l8.5,11.5-8.5,11.5-9.4-11.2Z"/>
  <polygon points="259.5 463 265.9 473.3 258.5 483 252.2 472.7 259.5 463"/>
</svg>